<svg xmlns="http://www.w3.org/2000/svg" viewBox="0 0 128 128">
  <defs>
    <linearGradient id="g" x1="0" y1="0" x2="1" y2="1">
      <stop offset="0%" stop-color="#10b981"/>
      <stop offset="100%" stop-color="#3b82f6"/>
    </linearGradient>
  </defs>
  <rect width="128" height="128" rx="24" fill="url(#g)"/>
  <g fill="#fff" transform="translate(24,24)">
    <path d="M64 16H16a8 8 0 0 0-8 8v8h64v-8a8 8 0 0 0-8-8Z"/>
    <path d="M8 40h64v24a8 8 0 0 1-8 8H16a8 8 0 0 1-8-8V40Zm48 16H24a4 4 0 1 0 0 8h32a4 4 0 1 0 0-8Z"/>
  </g>
</svg>
